PathFileType	4	(X/Y/Z)	/Users/niels/Desktop/University/Third Semester/Perception and Action/Exam/Gymnastics Motion Tracking/Code for Gym Tracking/Analyzed Data/Start Salto/stsalto_bad_id11_1_Sports2D/stsalto_bad_id11_1_Sports2D_px_person00.trc
DataRate	CameraRate	NumFrames	NumMarkers	Units	OrigDataRate	OrigDataStartFrame	OrigNumFrames
29.850746268656717	29.850746268656717	12	22	m	29.850746268656717	25	201
Frame#	Time	Hip			RHip			RKnee			RAnkle			RBigToe			RSmallToe			RHeel			LHip			LKnee			LAnkle			LBigToe			LSmallToe			LHeel			Neck			Head			Nose			RShoulder			RElbow			RWrist			LShoulder			LElbow			LWrist		
		X1	Y1	Z1	X2	Y2	Z2	X3	Y3	Z3	X4	Y4	Z4	X5	Y5	Z5	X6	Y6	Z6	X7	Y7	Z7	X8	Y8	Z8	X9	Y9	Z9	X10	Y10	Z10	X11	Y11	Z11	X12	Y12	Z12	X13	Y13	Z13	X14	Y14	Z14	X15	Y15	Z15	X16	Y16	Z16	X17	Y17	Z17	X18	Y18	Z18	X19	Y19	Z19	X20	Y20	Z20	X21	Y21	Z21	X22	Y22	Z22
25	0.8375	0.20006023918657662	-0.49317348503573594	0.0	0.18393473783228773	-0.49305298530872854	0.0	0.283743737632935	-0.605969098373098	0.0	0.28179815127676683	-0.7508917742322921	0.0	0.3424876448746419	-0.7764825980862226	0.0	0.3275122380866306	-0.781324220751184	0.0	0.26904352344463706	-0.7700861949279137	0.0	0.21794806531184602	-0.49298951966864724	0.0	0.2890751725624107	-0.6089333416761737	0.0	0.24111506336183733	-0.7383705723567627	0.0	0.2941559098770139	-0.7727329274136991	0.0	0.2893225520423987	-0.7700843862737679	0.0	0.22502738571104275	-0.7542663294023112	0.0	0.2388808783939311	-0.3261717025632143	0.0	0.257451665817813	-0.24345986182695703	0.0	0.281179801576458	-0.28961855377453355	0.0	0.20685006491612998	-0.3397352630425296	0.0	0.21988361223522343	-0.39291859004254975	0.0	0.29343504742035315	-0.39272974494741464	0.0	0.2660246612824193	-0.35265950440846655	0.0	0.31633344920725653	-0.3891364777898116	0.0	0.37894089700540295	-0.37111785265626285	0.0
26	0.871	0.2136117771535662	-0.49514608088975254	0.0	0.19795558990504597	-0.495374375844368	0.0	0.2966498114169927	-0.6090316274084816	0.0	0.2993417150797374	-0.7529144127920756	0.0	0.3606993332707547	-0.7769028641405241	0.0	0.3464124020373671	-0.782057059493219	0.0	0.2871879380241017	-0.7726093913745874	0.0	0.23128312207100485	-0.49486986740204864	0.0	0.30225331156774804	-0.6098589534005633	0.0	0.27051300802147527	-0.745654745307101	0.0	0.3291708625312586	-0.7733232282644202	0.0	0.32357070449848463	-0.7714048028043233	0.0	0.25476098625293053	-0.7634759193635188	0.0	0.2549459029677124	-0.32961228270147286	0.0	0.27572548839972844	-0.2468656264335147	0.0	0.2978926259967658	-0.29412658972000943	0.0	0.22411974265567583	-0.34250292173909697	0.0	0.24426455114132478	-0.3928217964132564	0.0	0.318787653529291	-0.3901897731175013	0.0	0.281399624447677	-0.35458397013881104	0.0	0.33357105726236874	-0.38792821082394713	0.0	0.3932397549450753	-0.3685015300419407	0.0
27	0.9045000000000001	0.2261492762612098	-0.4972558142458276	0.0	0.21121875236604526	-0.49795450114159007	0.0	0.3083642900993771	-0.6123056829810544	0.0	0.3157969499750372	-0.7553508151262781	0.0	0.3777665970405821	-0.7768565645915727	0.0	0.36448993290353265	-0.7823795575644775	0.0	0.3046244288473895	-0.7751040224073814	0.0	0.24359432996835115	-0.4970389643369215	0.0	0.3137356535257103	-0.6112577585054884	0.0	0.2976850703437793	-0.7515613037555544	0.0	0.35937985712049714	-0.774225617434205	0.0	0.35320664635006316	-0.7726568965864556	0.0	0.28218888059836145	-0.7707253478989601	0.0	0.2696901108462613	-0.33323370551532505	0.0	0.29281706822158526	-0.2507784573238627	0.0	0.3135401939614154	-0.2986850959605446	0.0	0.24029150718749034	-0.34557093381231857	0.0	0.26662971155951704	-0.392926514464375	0.0	0.341502017369058	-0.38769597108620313	0.0	0.2951939536345487	-0.35648560612748137	0.0	0.34919390738337025	-0.38695537432131305	0.0	0.40638376358319284	-0.3664846171019003	0.0
28	0.9380000000000001	0.23768779492444667	-0.49945404809228455	0.0	0.22374397060937284	-0.5004580638836638	0.0	0.3190292919158823	-0.6155496060509245	0.0	0.3316052701643643	-0.7581616316581352	0.0	0.3940274755510255	-0.7763204452893115	0.0	0.38200811569711324	-0.7823203986870381	0.0	0.32177433155252044	-0.7776145331131546	0.0	0.2548521903417123	-0.49921190376499874	0.0	0.3239096588111525	-0.6130458822190662	0.0	0.32232519365031576	-0.75607376990485	0.0	0.38499807282219406	-0.7751358982446258	0.0	0.37838100946354847	-0.773672098605605	0.0	0.3073946447516908	-0.7760868611236714	0.0	0.283233872771029	-0.33688578022564597	0.0	0.3087402342431225	-0.2548406944285357	0.0	0.3281010879837427	-0.3029594536507862	0.0	0.2554378414616764	-0.34879611542016825	0.0	0.2870458788408661	-0.39317790380369455	0.0	0.3621102705169344	-0.3852585874970632	0.0	0.30734234696137064	-0.3583922603633822	0.0	0.3628619657746418	-0.38635906056014563	0.0	0.41849985580409704	-0.3648960741286347	0.0
29	0.9715	0.24821572506336775	-0.5018066356801132	0.0	0.23549793235758537	-0.5027247251614081	0.0	0.3288688015630245	-0.6186634293020081	0.0	0.3470013779000506	-0.7611995387849807	0.0	0.409714297369923	-0.7753936155027096	0.0	0.399053498444563	-0.7819760701633703	0.0	0.3387035833999359	-0.7801721106992431	0.0	0.26496290283713847	-0.5012624956502073	0.0	0.3331155173079641	-0.6152611457941128	0.0	0.34404397590459923	-0.7595105732298411	0.0	0.4065520968609463	-0.7757585557682309	0.0	0.3996286520983237	-0.7743046229893196	0.0	0.33024120647000593	-0.7799868586510885	0.0	0.2956697041568935	-0.34060128415287905	0.0	0.3235109143519237	-0.258787499316912	0.0	0.34155515063354003	-0.30686856756583775	0.0	0.2696126526344223	-0.3520992984374412	0.0	0.3056178133957485	-0.3935807295015239	0.0	0.3810576409260979	-0.38278105533714896	0.0	0.31775010110597596	-0.3604202566126625	0.0	0.3743795574076619	-0.3861797601151342	0.0	0.42976362082527986	-0.3634669275782115	0.0
30	1.0050000000000001	0.2579056892630196	-0.504441081143705	0.0	0.24657835970066871	-0.504890451733744	0.0	0.33819563722554974	-0.6217447975772172	0.0	0.36199501498599	-0.764296169823605	0.0	0.4249537048181451	-0.7743482254526732	0.0	0.4156032568921383	-0.781548294359311	0.0	0.35517634579394863	-0.7827878981423626	0.0	0.27402097198649866	-0.5033442976555081	0.0	0.34178303894879575	-0.6180416640157316	0.0	0.3627948728030497	-0.7623129631388416	0.0	0.4247914091303016	-0.7760561953236733	0.0	0.4177493096593072	-0.7746314263559693	0.0	0.3506124502333512	-0.7829881788471575	0.0	0.3071370763696826	-0.34450860297687386	0.0	0.3372434330707814	-0.2626126694746339	0.0	0.3540350314233161	-0.31057934805344894	0.0	0.28295629148431156	-0.3554894802338513	0.0	0.32267783432909025	-0.39417050418746796	0.0	0.3987260392211151	-0.3801217081818591	0.0	0.326457332257304	-0.3626831029115894	0.0	0.38362995403818284	-0.38640361110161714	0.0	0.4401653761303055	-0.36207723801725905	0.0
31	1.0385	0.26717893842029067	-0.5074932637511377	0.0	0.25726283569656655	-0.5072544428871031	0.0	0.34744104187529007	-0.6249934924912351	0.0	0.376576065181732	-0.7673581908129905	0.0	0.4398682253344518	-0.7735671589049528	0.0	0.43168815822214135	-0.7813150889084116	0.0	0.37097399366453565	-0.785516270018353	0.0	0.2824288869896463	-0.5057379680006974	0.0	0.35044780867061187	-0.6215158866626873	0.0	0.3790881312684919	-0.7648669743963651	0.0	0.44064927378513963	-0.7762438652294719	0.0	0.43372594259485725	-0.774935342443221	0.0	0.36872316813499534	-0.785606974373505	0.0	0.31791409902846485	-0.34873027353505537	0.0	0.35023858405555713	-0.2665071921584731	0.0	0.3658546018833165	-0.3143994893513015	0.0	0.295736215831713	-0.3590790264531363	0.0	0.3388351440543547	-0.39495494842798323	0.0	0.4154795428935783	-0.37718425490851404	0.0	0.33380495708599217	-0.365254513256732	0.0	0.3906902481997031	-0.38703226389913453	0.0	0.4495450204219438	-0.3608557307818687	0.0
32	1.072	0.2765693694634539	-0.5110763616802436	0.0	0.2679228189441298	-0.510108782955271	0.0	0.3571011075008827	-0.6285966972189313	0.0	0.39092594578392215	-0.7704276406003456	0.0	0.4546952518207518	-0.7734068981290224	0.0	0.44749599794940237	-0.7815448542441603	0.0	0.3861845698199069	-0.7884928161129648	0.0	0.2907990144567531	-0.5086784223440408	0.0	0.35965390974049277	-0.6256905279213965	0.0	0.39381512749295844	-0.767478911131598	0.0	0.4551389116847043	-0.7766185731799706	0.0	0.44854316676206807	-0.7755234674795154	0.0	0.38521117062050425	-0.7882606808711334	0.0	0.3284522007990489	-0.35331619846651946	0.0	0.3629377440699173	-0.27070599914386745	0.0	0.37745643083408636	-0.3185969295070416	0.0	0.30829665875500617	-0.3630149632182512	0.0	0.3548248052077026	-0.3958959637966528	0.0	0.4317295338264789	-0.37397307244757394	0.0	0.3404797391142822	-0.368188590602571	0.0	0.3961619912400568	-0.3880734827988873	0.0	0.45800428457270564	-0.35999159663333596	0.0
33	1.1055000000000001	0.2863930298013808	-0.5152048102646508	0.0	0.2787796377429162	-0.5136557159882423	0.0	0.36745406309761774	-0.6326442358970115	0.0	0.40521053755791603	-0.7736518129819285	0.0	0.46955966881321876	-0.7741213394568218	0.0	0.4630747199325638	-0.7824613842867071	0.0	0.4009779872297384	-0.7918568885242847	0.0	0.2996160198568997	-0.512290655534424	0.0	0.36971288998495855	-0.6304171679918483	0.0	0.40775186131623214	-0.770393335105522	0.0	0.4690235811476367	-0.777448576285472	0.0	0.46278292173680835	-0.776613799107639	0.0	0.4007578265940341	-0.7912606624023987	0.0	0.3391720242929421	-0.35814947610562037	0.0	0.375546031623005	-0.2753395087821658	0.0	0.389183071578245	-0.3231760936170397	0.0	0.3208334465465846	-0.36733550427063383	0.0	0.3710930758605356	-0.39691433913491514	0.0	0.4477290628786842	-0.37061676038320285	0.0	0.3472917934533586	-0.37150707292788304	0.0	0.4012214252752915	-0.38945810442384077	0.0	0.4660293097075117	-0.35953581573579185	0.0
34	1.139	0.2965414168978602	-0.519735375767012	0.0	0.28973450946712115	-0.5179319660813544	0.0	0.37835127593598505	-0.6370805044968523	0.0	0.4192085416269984	-0.7771691263463234	0.0	0.4841201573723277	-0.775892808729306	0.0	0.47798757530768027	-0.7842748903517918	0.0	0.41518048667510576	-0.7956342420348109	0.0	0.308956192242185	-0.5165627244139634	0.0	0.38053252054022224	-0.635453438382138	0.0	0.42112176917164523	-0.773754740524638	0.0	0.48244960322894587	-0.7789804617460075	0.0	0.47635181662322595	-0.7783844843729715	0.0	0.4155266289213472	-0.7947384675643073	0.0	0.35017611395559844	-0.3629509806267443	0.0	0.3877543603863888	-0.28035155186432353	0.0	0.40103494393844313	-0.3278654200485213	0.0	0.33322037399396404	-0.3719156045791974	0.0	0.3875050441517223	-0.3979097312145114	0.0	0.46328097575536775	-0.36736116723299683	0.0	0.354812850290285	-0.3751685893812881	0.0	0.40719078221952937	-0.39099365594018215	0.0	0.47414280528966474	-0.35937562143959884	0.0
35	1.1725	0.3067180384536172	-0.5244447633953548	0.0	0.30058474907103927	-0.522807965893849	0.0	0.3894251470231507	-0.6417664295626168	0.0	0.43241920172005566	-0.7810482668978416	0.0	0.49775011776295114	-0.7788726059286549	0.0	0.4915932610802007	-0.7871883813085065	0.0	0.42835241931533097	-0.7997409711099714	0.0	0.31861941301887886	-0.5213775325538794	0.0	0.39177442209897373	-0.6405933597430913	0.0	0.43372322697713034	-0.7776067642672624	0.0	0.49509266266401397	-0.7814665409380034	0.0	0.48882064621122157	-0.7810561271540413	0.0	0.4291555739492386	-0.7986317176773989	0.0	0.36129042761538355	-0.3674680756180685	0.0	0.3990721004550669	-0.2856080683170958	0.0	0.4127718605078391	-0.3323937487615437	0.0	0.3452121629257031	-0.3765856817551122	0.0	0.40364085064949934	-0.39880988180460347	0.0	0.47793232567902216	-0.3644555784155244	0.0	0.36324890713688646	-0.3791064678248252	0.0	0.41505446170743454	-0.39244464855427164	0.0	0.482690590900545	-0.3592947001312303	0.0
36	1.206	0.3167316459110336	-0.5291598096455713	0.0	0.31126970266409976	-0.5280821376964321	0.0	0.4003999511034446	-0.6465641474625925	0.0	0.4444138668843575	-0.7852982046549224	0.0	0.509987065656677	-0.7831213984111959	0.0	0.5035191974133743	-0.7913141750929263	0.0	0.44012341269907324	-0.8040649528729832	0.0	0.3283891117583375	-0.5265723365132237	0.0	0.4030983053632926	-0.6457113703905031	0.0	0.4452900633254693	-0.7819366706184443	0.0	0.5065979483884602	-0.7851154693093393	0.0	0.49989651855624323	-0.7848237055762861	0.0	0.44115287398703923	-0.8027982454878467	0.0	0.37228650998673535	-0.37163465132496604	0.0	0.40931435704758845	-0.29103346376728956	0.0	0.42416168979506613	-0.33668576321756044	0.0	0.3566967353218024	-0.3812545017476499	0.0	0.41918906103511644	-0.3996280680149245	0.0	0.49135816587102416	-0.3620442969614428	0.0	0.3724918291169709	-0.3832760762542164	0.0	0.4251392906955098	-0.39370386519394585	0.0	0.49184839568417194	-0.35909624844929605	0.0
